#!OML:ASF E:\Mandelcareful walks\Project 1\Capture day 1\Session 1\Subject1.ASF
:FULLY-SPECIFIED
:DEGREES
81
root -10.7925 2.28517 0.620505 162.269 6.42377 -81.295
lowerback 30.689 0.0239566 11.6927
upperback 6.58766 2.36949 6.10973
thorax -8.23933 0.00108954 -0.410491
lowerneck -24.8253 0.209676 -6.69196
upperneck 24.3604 9.20075 -14.5152
head 13.035 1.79387 -2.74455
rclavicle 2.17421e-015 -3.18055e-014
rhumerus -17.1265 52.5828 -111.742
rradius 93.598
rwrist -6.14602
rhand -10.6222 -11.1908
rfingers 7.12502
rthumb 15.3844 -40.5984
lclavicle 2.17421e-015 -3.18055e-014
lhumerus 89.6154 -19.7377 -25.0821
lradius 30.8786
lwrist 44.7116
lhand -15.3475 15.0469
lfingers 7.12502
lthumb 10.8296 44.7477
rfemur -13.6459 -20.9627 36.7085
rtibia 74.7109
rfoot 15.1313 -8.62575
rtoes -7.11705
lfemur -35.8768 -14.0913 -3.16803
ltibia 41.5562
lfoot 14.6671 8.34941
ltoes 3.96946
82
root -10.794 2.28526 0.620721 162.362 6.43997 -81.1455
lowerback 30.6308 -0.0110382 11.8301
upperback 6.56157 2.36453 6.13039
thorax -8.23429 -0.00384011 -0.457136
lowerneck -24.794 0.236085 -6.62765
upperneck 24.3315 9.2109 -14.543
head 13.0211 1.80462 -2.76281
rclavicle 8.31168e-015 1.59028e-015
rhumerus -17.0765 52.6454 -111.712
rradius 93.6146
rwrist -6.16132
rhand -10.6711 -11.3151
rfingers 7.12502
rthumb 15.3373 -40.7263
lclavicle 8.31168e-015 1.59028e-015
lhumerus 89.5486 -19.7753 -25.0697
lradius 30.8811
lwrist 44.6537
lhand -15.4169 14.7933
lfingers 7.12502
lthumb 10.7626 44.4976
rfemur -13.7467 -20.981 36.9084
rtibia 74.6684
rfoot 15.3096 -8.47903
rtoes -7.78804
lfemur -35.976 -14.1669 -2.97096
ltibia 41.5522
lfoot 14.6835 8.42286
ltoes 3.95308
83
root -10.7923 2.28367 0.623826 162.436 6.46915 -81.0138
lowerback 30.641 -0.0235665 11.9585
upperback 6.52496 2.39465 6.19689
thorax -8.26906 0.000858747 -0.460882
lowerneck -24.8777 0.277854 -6.6672
upperneck 24.4618 9.32067 -14.489
head 13.0933 1.84405 -2.71874
rclavicle -5.57839e-015 -9.38264e-014
rhumerus -17.0883 52.6565 -111.646
rradius 93.6306
rwrist -6.02191
rhand -10.5086 -11.4868
rfingers 7.12502
rthumb 15.4938 -40.886
lclavicle -5.57839e-015 -9.38264e-014
lhumerus 89.4282 -19.8715 -24.7815
lradius 30.8612
lwrist 44.4437
lhand -15.4375 14.4801
lfingers 7.12502
lthumb 10.7428 44.1854
rfemur -13.8362 -20.9795 37.0735
rtibia 74.6176
rfoot 15.4676 -8.43619
rtoes -7.87121
lfemur -36.0811 -14.235 -2.77462
ltibia 41.5429
lfoot 14.7588 8.46961
ltoes 3.88336
84
root -10.7973 2.28582 0.619706 162.535 6.48507 -80.8675
lowerback 30.5024 -0.0606824 12.0883
upperback 6.53782 2.36415 6.22972
thorax -8.19075 -0.0129122 -0.48306
lowerneck -24.9878 0.349259 -6.69757
upperneck 24.539 9.41162 -14.3419
head 13.1385 1.88882 -2.64129
rclavicle -2.25372e-014 -7.15625e-014
rhumerus -17.0439 52.7394 -111.655
rradius 93.5793
rwrist -6.08844
rhand -10.6784 -11.3301
rfingers 7.12502
rthumb 15.3303 -40.7419
lclavicle -2.25372e-014 -7.15625e-014
lhumerus 89.2257 -19.9569 -24.4518
lradius 30.8332
lwrist 44.2263
lhand -15.1255 14.4014
lfingers 7.12502
lthumb 11.0437 44.0908
rfemur -13.8678 -20.9514 37.2816
rtibia 74.5307
rfoot 15.4284 -8.52479
rtoes -7.57336
lfemur -36.1794 -14.3069 -2.55712
ltibia 41.5556
lfoot 14.7712 8.51009
ltoes 3.80236
85
root -10.8019 2.28754 0.614574 162.628 6.48276 -80.7453
lowerback 30.0091 -0.0271953 12.1303
upperback 6.99839 2.31061 6.31251
thorax -8.16836 -0.00949371 -0.486241
lowerneck -24.9633 0.317572 -6.82605
upperneck 24.4869 9.31388 -14.1515
head 13.0848 1.86099 -2.56257
rclavicle -2.06239e-015 6.20208e-014
rhumerus -16.8819 52.807 -111.573
rradius 93.4795
rwrist -6.33689
rhand -11.1099 -11.1089
rfingers 7.12502
rthumb 14.9146 -40.5519
lclavicle -2.06239e-015 6.20208e-014
lhumerus 89.0518 -20.0584 -23.9656
lradius 30.7515
lwrist 43.6221
lhand -14.7526 14.5612
lfingers 7.12502
lthumb 11.4033 44.2311
rfemur -13.9142 -21.0041 37.4354
rtibia 74.4782
rfoot 15.5348 -8.41675
rtoes -7.87116
lfemur -36.2785 -14.4056 -2.38507
ltibia 41.5826
lfoot 14.7871 8.56489
ltoes 3.73456
